PathFileType  4	(X/Y/Z) C:\simtk\uwmodels\fbknee\data\invivovalid3\exp\aclc01\Files_W_HJCs
DataRate	CameraRate	NumFrames	NumMarkers	Units	OrigDataRate	OrigDataStartFrame	OrigNumFrames
  200.0      200.0       7         52 mm      200.0         1054      1204
Frame#	Time            R.Shoulder                       R.Clavicle                       R.Bicep                          R.Elbow                          R.Forearm                        R.Wrist                          L.Shoulder                       L.Clavicle                       L.Scapula                        L.Bicep                          L.Elbow                          L.Forearm                        L.Wrist                          R.ASIS                           R.PSIS                           S2                               L.PSIS                           L.ASIS                           R.TH1                            R.TH2                            R.TH3                            R.Knee                           R.SH1                            R.SH2                            R.SH3                            R.SH4                            R.Ankle                          R.Heel                           R.MT5                            L.TH1                            L.TH2                            L.TH3                            L.TH4                            L.Knee                           L.SH1                            L.SH2                            L.SH3                            L.Ankle                          L.Heel                           L.MT5                            R.Melb                           R.GTR                            R.Mkn                            R.Man                            R.MT0                            L.Melb                           L.GTR                            L.Mkn                            L.Man                            L.MT0                            R_HJC                            L_HJC                  
                     X1         Y1         Z1         X2         Y2         Z2         X3         Y3         Z3         X4         Y4         Z4         X5         Y5         Z5         X6         Y6         Z6         X7         Y7         Z7         X8         Y8         Z8         X9         Y9         Z9         X10         Y10         Z10         X11         Y11         Z11         X12         Y12         Z12         X13         Y13         Z13         X14         Y14         Z14         X15         Y15         Z15         X16         Y16         Z16         X17         Y17         Z17         X18         Y18         Z18         X19         Y19         Z19         X20         Y20         Z20         X21         Y21         Z21         X22         Y22         Z22         X23         Y23         Z23         X24         Y24         Z24         X25         Y25         Z25         X26         Y26         Z26         X27         Y27         Z27         X28         Y28         Z28         X29         Y29         Z29         X30         Y30         Z30         X31         Y31         Z31         X32         Y32         Z32         X33         Y33         Z33         X34         Y34         Z34         X35         Y35         Z35         X36         Y36         Z36         X37         Y37         Z37         X38         Y38         Z38         X39         Y39         Z39         X40         Y40         Z40         X41         Y41         Z41         X42         Y42         Z42         X43         Y43         Z43         X44         Y44         Z44         X45         Y45         Z45         X46         Y46         Z46         X47         Y47         Z47         X48         Y48         Z48         X49         Y49         Z49         X50         Y50         Z50         X51         Y51         Z51         X52         Y52         Z52         

	1054	5.26500	535.931	1931.480	1605.765	616.484	2081.117	1600.724	586.007	1883.547	1397.351	468.626	1853.089	1306.508	549.028	1763.418	1247.494	502.546	1731.585	1133.032	568.610	2307.390	1610.393	626.086	2138.870	1601.295	443.405	2214.931	1576.410	614.344	2354.484	1455.208	519.926	2413.355	1316.876	585.949	2481.532	1254.912	551.588	2505.809	1135.963	658.561	1986.540	1151.378	428.364	2067.855	1226.792	419.507	2121.013	1221.011	432.999	2173.815	1229.084	657.161	2242.308	1140.679	596.481	1905.911	945.381	445.613	1935.501	959.060	442.275	1942.633	884.047	494.646	1913.326	736.458	519.487	1880.715	604.066	519.475	1887.558	529.477	410.046	1928.816	610.236	408.809	1924.263	533.841	481.852	1893.879	333.151	416.000	1943.641	299.427	601.492	1863.865	276.053	600.151	2311.992	907.604	603.464	2298.979	826.637	451.685	2306.026	908.529	446.289	2300.432	832.094	497.637	2312.657	727.279	540.136	2333.940	641.689	428.580	2319.795	642.360	423.618	2335.766	566.437	505.320	2357.408	338.178	421.689	2325.678	297.050	604.603	2384.248	278.519	536.269	1926.888	1274.553	537.783	1892.446	1094.500	510.948	2077.578	694.023	506.331	1984.777	337.158	618.097	1978.483	279.223	592.270	2322.530	1272.267	527.511	2323.671	1112.211	493.099	2148.609	694.535	511.272	2261.974	333.990	624.085	2261.553	279.429	560.721	2015.826	1101.506	553.492	2213.975	1080.853
	1055	5.27000	535.931	1931.480	1605.765	616.304	2081.171	1600.550	585.944	1883.393	1397.334	468.626	1853.089	1306.508	549.372	1763.464	1247.595	502.551	1731.952	1133.058	568.665	2307.377	1610.420	626.000	2138.704	1601.270	443.405	2214.931	1576.410	614.344	2354.484	1455.208	519.816	2413.421	1316.879	585.928	2481.942	1255.222	551.588	2505.809	1135.963	658.635	1987.019	1151.271	428.342	2067.661	1226.872	419.521	2120.959	1221.159	432.966	2173.664	1228.293	657.161	2242.308	1140.679	596.494	1905.674	945.307	446.069	1935.156	959.163	442.261	1942.121	883.880	494.646	1913.326	736.458	519.465	1880.794	603.996	519.426	1887.868	529.478	410.339	1929.093	610.145	408.776	1924.029	533.866	481.852	1893.879	333.151	416.215	1942.736	299.716	601.492	1863.865	276.053	600.151	2311.992	907.604	603.334	2298.861	826.505	451.658	2306.068	908.475	446.289	2300.432	832.094	497.736	2312.663	727.250	540.143	2333.967	641.654	428.871	2319.853	642.594	423.579	2335.868	566.417	505.444	2357.376	338.185	421.805	2325.966	297.189	604.830	2384.169	278.569	536.269	1926.888	1274.553	537.783	1892.446	1094.500	510.948	2077.578	694.023	506.443	1984.804	337.120	618.097	1978.483	279.223	592.385	2322.489	1272.116	527.172	2323.573	1112.233	500.385	2145.449	695.209	511.272	2261.974	333.990	624.007	2261.527	279.058	560.900	2015.840	1101.453	553.436	2213.968	1080.680
	1056	5.27500	535.919	1931.504	1605.845	616.466	2081.229	1600.787	586.007	1883.547	1397.351	468.579	1853.043	1306.497	549.372	1763.464	1247.595	502.551	1731.952	1133.058	568.610	2307.390	1610.393	626.071	2138.866	1601.307	443.398	2214.844	1576.471	614.344	2354.484	1455.208	520.034	2413.586	1317.212	586.077	2481.654	1255.428	551.664	2505.759	1135.954	658.695	1987.519	1151.228	428.364	2067.855	1226.792	419.521	2120.959	1221.159	432.966	2173.664	1228.293	657.241	2242.290	1140.674	596.494	1905.674	945.307	445.371	1935.624	959.187	442.444	1942.221	884.019	494.646	1913.326	736.458	519.465	1880.794	603.996	519.310	1887.979	529.386	409.982	1928.866	610.124	408.770	1924.157	533.981	481.852	1893.879	333.151	416.000	1943.641	299.427	601.492	1863.865	276.053	600.114	2311.917	907.500	603.424	2298.727	826.404	451.765	2305.777	908.381	446.116	2300.661	831.693	497.637	2312.657	727.279	539.978	2333.821	641.660	428.871	2319.853	642.594	423.675	2335.797	566.548	505.320	2357.408	338.178	421.775	2326.040	297.169	604.830	2384.169	278.569	536.269	1926.888	1274.553	537.694	1892.222	1094.471	511.286	2077.764	693.949	506.683	1984.807	337.282	618.097	1978.483	279.223	592.270	2322.530	1272.267	527.893	2323.493	1112.480	500.385	2145.449	695.209	511.272	2261.974	333.990	624.111	2261.546	279.429	560.984	2016.020	1101.401	553.441	2214.151	1080.687
	1057	5.28000	535.919	1931.504	1605.845	616.455	2081.432	1600.761	586.218	1883.521	1397.459	469.005	1853.295	1306.436	549.028	1763.418	1247.494	502.551	1731.952	1133.058	568.665	2307.377	1610.420	626.079	2138.658	1601.351	443.504	2215.105	1576.365	614.344	2354.484	1455.208	519.816	2413.421	1316.879	585.928	2481.942	1255.222	551.664	2505.759	1135.954	658.635	1987.019	1151.271	428.342	2067.661	1226.872	419.521	2120.959	1221.159	432.966	2173.664	1228.293	657.174	2242.362	1140.646	596.481	1905.911	945.381	446.100	1935.075	958.921	442.280	1942.532	883.935	494.646	1913.326	736.458	519.465	1880.794	603.996	519.608	1887.698	529.586	410.534	1928.679	610.203	408.696	1924.427	533.726	482.626	1893.968	333.105	416.000	1943.641	299.427	601.492	1863.865	276.053	600.071	2311.911	907.519	603.418	2298.878	826.453	451.658	2306.068	908.475	446.334	2300.257	831.942	497.637	2312.657	727.279	540.136	2333.940	641.689	428.580	2319.795	642.360	423.606	2335.789	566.393	505.405	2357.464	338.174	421.695	2325.911	297.122	604.738	2384.233	278.515	536.269	1926.888	1274.553	537.783	1892.446	1094.500	510.948	2077.578	694.023	506.443	1984.804	337.120	618.097	1978.483	279.223	592.270	2322.530	1272.267	527.561	2323.504	1112.393	500.385	2145.449	695.209	511.272	2261.974	333.990	624.177	2261.495	279.455	560.905	2015.848	1101.450	553.427	2213.974	1080.666
	1058	5.28500	535.931	1931.480	1605.765	616.274	2081.485	1600.588	586.218	1883.521	1397.459	468.626	1853.089	1306.508	549.372	1763.464	1247.595	502.551	1731.952	1133.058	568.610	2307.390	1610.393	626.068	2138.884	1601.291	443.533	2215.097	1576.354	614.434	2354.457	1455.231	520.019	2413.526	1317.300	586.077	2481.654	1255.428	551.722	2505.973	1135.808	658.735	1987.558	1151.086	428.364	2067.855	1226.792	419.890	2119.522	1219.982	433.068	2173.798	1228.274	657.075	2242.327	1140.684	596.481	1905.911	945.381	446.100	1935.075	958.921	442.349	1942.587	883.844	494.619	1913.370	736.414	519.654	1880.761	604.183	519.402	1887.769	529.455	410.329	1928.901	610.192	408.750	1924.320	533.753	482.626	1893.968	333.105	416.000	1943.641	299.427	601.226	1863.847	276.332	600.151	2311.992	907.604	603.288	2298.760	826.321	451.658	2306.068	908.475	446.218	2300.493	831.852	497.723	2312.689	727.222	539.972	2334.068	641.584	428.871	2319.853	642.594	423.618	2335.739	566.480	505.436	2357.409	338.153	421.805	2325.966	297.189	604.830	2384.169	278.569	536.269	1926.888	1274.553	537.783	1892.446	1094.500	510.948	2077.578	694.023	506.443	1984.804	337.120	618.097	1978.483	279.223	592.265	2322.476	1272.353	527.561	2323.504	1112.393	500.385	2145.449	695.209	511.673	2260.368	334.191	624.132	2261.474	279.316	561.309	2015.885	1101.129	553.497	2214.015	1080.511
	1059	5.29000	535.895	1931.686	1605.813	616.483	2081.463	1600.706	586.218	1883.521	1397.459	468.629	1853.050	1306.553	549.711	1763.307	1247.652	502.551	1731.952	1133.058	568.610	2307.390	1610.393	626.071	2138.866	1601.307	443.504	2215.105	1576.365	614.344	2354.484	1455.208	519.816	2413.421	1316.879	586.077	2481.654	1255.428	551.825	2506.000	1135.856	658.677	1987.093	1151.136	428.364	2067.855	1226.792	419.521	2120.959	1221.159	432.966	2173.664	1228.293	657.241	2242.290	1140.674	596.481	1905.911	945.381	446.029	1935.241	958.926	442.513	1942.276	883.928	494.644	1913.377	736.424	519.465	1880.794	603.996	519.402	1887.769	529.455	410.339	1929.093	610.145	408.744	1924.441	533.860	481.852	1893.879	333.151	416.000	1943.641	299.427	601.492	1863.865	276.053	600.114	2311.917	907.500	603.288	2298.760	826.321	451.973	2304.974	907.635	446.334	2300.257	831.942	497.734	2312.654	727.177	540.066	2334.017	641.583	428.580	2319.795	642.360	423.579	2335.868	566.417	505.522	2357.465	338.149	421.775	2326.040	297.169	604.603	2384.248	278.519	536.269	1926.888	1274.553	537.783	1892.446	1094.500	511.684	2077.638	693.683	506.683	1984.807	337.282	619.007	1978.725	279.421	592.385	2322.489	1272.116	527.172	2323.573	1112.233	500.385	2145.449	695.209	511.327	2262.006	333.881	624.078	2261.530	279.284	560.897	2015.924	1101.357	553.477	2214.064	1080.679
	1060	5.29500	535.895	1931.686	1605.813	616.455	2081.432	1600.761	586.221	1883.575	1397.533	468.629	1853.050	1306.553	549.368	1763.128	1247.632	502.551	1731.952	1133.058	568.735	2307.563	1610.253	626.071	2138.866	1601.307	443.405	2214.931	1576.410	614.344	2354.484	1455.208	520.034	2413.586	1317.212	586.077	2481.654	1255.428	551.830	2506.059	1135.796	658.735	1987.558	1151.086	428.364	2067.855	1226.792	419.853	2119.607	1219.755	432.999	2173.815	1229.084	657.166	2242.387	1140.832	596.481	1905.911	945.381	446.100	1935.075	958.921	442.349	1942.587	883.844	494.646	1913.326	736.458	519.654	1880.761	604.183	519.435	1887.750	529.380	410.046	1928.816	610.236	408.753	1924.260	533.700	481.852	1893.879	333.151	416.000	1943.641	299.427	601.226	1863.847	276.332	600.076	2311.859	907.425	603.199	2298.895	826.422	451.658	2306.068	908.475	446.334	2300.257	831.942	497.637	2312.657	727.279	540.066	2334.017	641.583	428.580	2319.795	642.360	423.579	2335.868	566.417	505.436	2357.409	338.153	421.689	2325.678	297.050	604.603	2384.248	278.519	536.269	1926.888	1274.553	537.783	1892.446	1094.500	511.684	2077.638	693.683	506.683	1984.807	337.282	619.007	1978.725	279.421	592.686	2322.527	1272.177	527.172	2323.573	1112.233	493.717	2148.491	694.295	511.381	2262.038	333.772	624.132	2261.474	279.316	561.241	2016.045	1101.103	553.510	2214.212	1080.800
